PathFileType	4	(X/Y/Z)	c:/Users/goper/Files/vsCode/490R/osim_files/C07/C07_Fast_05.trc
DataRate	CameraRate	NumFrames	NumMarkers	Units                	OrigDataRate	OrigDataStartFrame	OrigNumFrames
250.00	250.00	5	36	mm	250.0	2328	3103
                Frame#	Time	LPSIS			LASIS			LTH1			LTH2			LTH3			LTH4			LLFE			LMFE			LSH1			LSH2			LSH3			LSH4			LLMAL			LMMAL			LCAL			LMTP5			LTOE			LMTP1			RPSIS			RASIS			RTH1			RTH2			RTH3			RTH4			RLFE			RMFE			RSH1			RSH2			RSH3			RSH4			RLMAL			RMMAL			RCAL			RMTP1			RTOE			RMTP5		
		X1	Y1	Z1	X2	Y2	Z2	X3	Y3	Z3	X4	Y4	Z4	X5	Y5	Z5	X6	Y6	Z6	X7	Y7	Z7	X8	Y8	Z8	X9	Y9	Z9	X10	Y10	Z10	X11	Y11	Z11	X12	Y12	Z12	X13	Y13	Z13	X14	Y14	Z14	X15	Y15	Z15	X16	Y16	Z16	X17	Y17	Z17	X18	Y18	Z18	X19	Y19	Z19	X20	Y20	Z20	X21	Y21	Z21	X22	Y22	Z22	X23	Y23	Z23	X24	Y24	Z24	X25	Y25	Z25	X26	Y26	Z26	X27	Y27	Z27	X28	Y28	Z28	X29	Y29	Z29	X30	Y30	Z30	X31	Y31	Z31	X32	Y32	Z32	X33	Y33	Z33	X34	Y34	Z34	X35	Y35	Z35	X36	Y36	Z36

2328	9.30800	-949.40887	997.23090	346.78629	-1116.86450	968.57458	427.10483	-1007.96960	788.05542	479.48718	-997.28497	710.26453	475.85590	-986.13672	636.87933	458.77887	-1072.58569	704.21820	447.39661	-929.17065	521.09247	434.57312	-924.43054	508.91962	313.66895	-852.18280	339.14423	442.02759	-825.96979	301.28656	426.53607	-891.21521	336.49677	428.58597	-877.40875	293.35046	419.96423	-780.74609	124.61292	377.74411	-809.85388	144.55103	305.93289	-711.71234	68.67059	329.40433	-891.67688	38.64443	402.25525	-947.73712	46.91413	347.97043	-916.92419	40.52211	294.93338	-950.05908	998.35004	247.06946	-1110.09485	968.32477	172.50343	-1095.95581	816.74982	108.13148	-1122.77332	743.08447	102.81428	-1149.37109	665.50885	102.10515	-1189.86047	763.20325	137.43791	-1209.55566	505.52023	134.17599	-1206.58557	506.16602	250.07460	-1222.28357	319.06644	115.86270	-1267.26855	286.83313	109.84816	-1277.49792	344.94403	113.83595	-1294.19067	303.54007	115.51299	-1323.53809	112.78168	145.47917	-1353.16565	137.85619	220.61014	-1306.43091	46.73132	200.86900	-1502.94299	125.10430	212.97610	-1515.70129	140.88298	161.17807	-1479.58789	98.02662	108.18713
2329	9.31200	-954.35852	996.34686	346.27878	-1120.62927	967.44971	426.86652	-1012.22754	787.34125	479.26962	-1001.36145	709.60553	475.81552	-989.78632	636.23987	458.62427	-1076.41760	703.22321	447.22855	-932.15765	520.73761	434.47360	-927.26654	508.62466	313.69293	-854.22925	339.29245	442.09946	-827.66840	301.48309	426.69531	-893.09619	336.30820	428.55972	-879.09381	293.29550	419.98868	-781.16632	125.07426	377.93991	-810.39410	144.91179	306.14233	-711.86072	69.46211	329.55017	-891.72784	38.62202	402.33038	-947.74561	46.84725	348.03204	-916.96814	40.52128	294.96381	-955.11353	997.22327	246.50348	-1115.17786	966.79895	172.23451	-1100.43396	814.85083	107.60860	-1125.28882	740.33630	102.74149	-1152.51306	663.15918	101.85660	-1193.72998	760.60248	137.25256	-1213.65979	504.34851	134.14143	-1210.39746	504.98038	250.22145	-1228.88501	318.11465	115.80010	-1274.37878	286.73386	109.55679	-1283.64636	344.93506	113.78289	-1301.02808	303.82327	115.24339	-1334.33179	113.08141	145.49377	-1362.64038	138.64841	220.49690	-1317.84302	46.67489	200.43327	-1512.57361	128.73598	214.61984	-1525.47083	144.85767	162.85335	-1491.17896	101.19196	109.46862
2330	9.31600	-959.32678	995.40247	345.64746	-1126.35583	966.34253	426.65656	-1016.46967	786.53058	478.99054	-1005.52924	708.98596	475.85007	-993.52252	635.62518	458.44980	-1080.41882	702.20990	446.98029	-935.15790	520.29858	434.45883	-930.26605	508.29626	313.67868	-856.20117	339.32693	442.23010	-829.29938	301.69769	426.89557	-894.95691	336.10522	428.56543	-880.86169	293.19043	420.02896	-781.66138	125.54361	378.16949	-811.08594	145.35551	306.37320	-711.99103	70.22691	329.72513	-891.71698	38.59009	402.39206	-947.76300	46.76445	348.08112	-917.00897	40.52169	294.98587	-960.06439	996.18256	245.88393	-1120.23645	965.32990	171.98373	-1104.91174	812.95966	106.94533	-1130.50671	738.85925	101.67381	-1155.79761	660.79285	101.53275	-1197.61450	758.02771	137.04117	-1218.74243	503.06763	134.57826	-1214.79456	504.11893	250.34573	-1235.37097	317.21182	115.98277	-1281.15881	286.57675	109.49697	-1289.65381	344.80249	113.81587	-1307.67432	303.89075	115.11280	-1344.18298	113.37923	145.44476	-1371.94275	139.48967	220.61479	-1328.73657	46.61565	200.16994	-1521.59595	132.28632	216.18483	-1533.52759	148.22443	164.85583	-1501.80457	104.09492	110.64131
2331	9.32000	-964.23376	994.51196	345.08527	-1131.36816	965.36420	426.46152	-1021.02197	785.84857	478.71344	-1009.73163	708.33667	475.83789	-997.31934	634.99597	458.37399	-1084.54187	701.26160	446.83124	-938.58667	519.79108	434.35239	-933.35590	507.93393	313.60794	-858.44220	339.36740	442.36243	-831.20953	301.91055	426.98999	-897.17084	335.87683	428.61060	-882.63239	293.02756	420.03699	-782.11523	126.07719	378.40323	-811.62781	145.73518	306.54407	-712.24384	70.98297	329.90997	-891.74286	38.56480	402.42661	-947.76953	46.67168	348.09103	-917.05823	40.48536	294.99503	-964.98804	995.13715	245.27629	-1125.16223	963.92755	171.62057	-1109.46765	811.15460	106.29739	-1133.39465	736.30078	101.28760	-1159.47449	658.59790	101.33854	-1201.60657	755.55237	136.85373	-1223.23242	502.15060	134.53859	-1219.33130	503.23785	250.38846	-1241.46301	316.27060	116.50246	-1287.55115	286.17764	109.63946	-1295.56262	344.47153	113.89484	-1313.97522	303.76874	115.09071	-1353.72571	113.42566	145.68855	-1380.40588	140.08540	220.87241	-1338.92029	46.49782	200.26186	-1530.33130	136.28825	217.73357	-1543.35034	151.82512	166.15521	-1511.85974	106.76479	111.87703
2332	9.32400	-969.11084	993.64044	344.43219	-1135.19470	964.32092	426.10236	-1025.43469	785.11877	478.48279	-1013.97253	707.66101	475.77612	-1001.24677	634.30212	458.18188	-1088.70923	700.31427	446.59262	-942.05688	519.42023	434.35904	-936.80048	507.51947	313.59528	-860.80206	339.45325	442.43433	-833.26996	302.14349	427.07614	-899.51862	335.69043	428.66699	-884.63837	292.92410	420.11017	-782.76215	126.61011	378.68652	-812.15204	146.15515	306.69925	-712.75226	71.77405	329.99704	-891.78735	38.54592	402.48056	-947.86151	46.56198	348.14804	-917.09967	40.45279	295.02673	-969.96027	994.02899	244.66924	-1130.12585	962.50494	171.39774	-1114.10742	809.47546	105.59544	-1137.79529	734.50757	100.39164	-1163.58521	656.64966	101.27838	-1205.75000	753.49622	136.51085	-1228.07874	501.31342	134.48622	-1224.34985	502.42853	250.46301	-1247.42578	315.20605	117.25929	-1293.69019	285.55811	109.95151	-1301.33130	343.90909	113.95185	-1319.89526	303.46933	115.05338	-1362.31970	113.27710	146.21416	-1388.54541	140.47687	221.29793	-1348.59790	46.17033	200.74731	-1538.34326	138.95081	218.91003	-1550.60254	154.55991	167.65619	-1520.84668	108.95583	113.01134
